<svg width="16" height="16" viewBox="0 0 16 16" fill="none" xmlns="http://www.w3.org/2000/svg">
<path d="M13.6489 8.85884C13.4564 7.85004 13.0796 6.92076 12.4476 6.10451C12.4434 6.10033 12.4392 6.09614 12.435 6.09195C12.3638 6.02079 12.2424 6.07102 12.2257 6.17149C12.2257 6.17567 12.2257 6.17986 12.2215 6.18823C12.2048 6.35567 12.2215 6.5231 12.1922 6.68635C12.0792 7.33098 11.5015 7.81236 10.8402 7.81655C10.2123 7.82073 9.57602 7.33098 9.49231 6.7031C9.45045 6.38497 9.48393 6.04172 9.5551 5.72778C9.73927 4.8906 9.76858 4.06597 9.54254 3.23298C9.15743 1.83488 8.27839 0.809336 7.09378 0.0223848C7.01006 -0.032032 6.89286 0.0181989 6.8803 0.114475C6.87611 0.135404 6.87611 0.156334 6.8803 0.177264C7.04773 1.14839 6.87611 2.05674 6.33194 2.8688C6.00963 3.35437 5.62871 3.79808 5.25198 4.24597C4.69107 4.91153 4.07155 5.53523 3.54831 6.2259C2.41393 7.73283 2.01627 9.43649 2.32603 11.295C2.6902 13.4675 4.48596 15.3512 6.65426 15.8368C6.93053 15.8995 7.21517 15.9372 7.49563 15.9833C7.55842 15.9916 7.6212 16 7.68818 16H8.27002C8.337 16 8.48769 15.9749 8.49606 15.9749C10.1872 15.7991 11.5476 15.0205 12.5689 13.6726C13.6573 12.2369 13.9838 10.6169 13.6489 8.85884ZM10.1076 13.8359C9.29975 14.7024 8.28258 14.987 7.15238 14.6354C6.03893 14.288 5.34826 13.4968 5.1557 12.3457C4.97571 11.2699 5.26035 10.2779 5.87149 9.37789C6.23567 8.8421 6.67519 8.37746 7.13982 7.93375C7.14401 7.92957 7.1482 7.92538 7.15238 7.9212C7.23191 7.87097 7.33656 7.92538 7.34912 8.01747C7.34912 8.02584 7.34912 8.03421 7.34912 8.04259C7.34912 8.10119 7.34493 8.15979 7.34075 8.2184C7.324 8.55745 7.33238 8.89651 7.37005 9.23557L7.41191 9.62486C7.44958 9.98066 7.58772 10.3239 7.81794 10.6002C8.44583 11.3453 9.59277 11.496 10.4341 10.7969C10.5974 10.6588 10.6476 10.6713 10.7188 10.8764C11.0871 11.9773 10.903 12.9861 10.1076 13.8359Z" fill="url(#paint0_linear_1261_3364)"/>
<defs>
<linearGradient id="paint0_linear_1261_3364" x1="10.2246" y1="-1" x2="6.72461" y2="12" gradientUnits="userSpaceOnUse">
<stop stop-color="#FFD600"/>
<stop offset="1" stop-color="#FF3155"/>
</linearGradient>
</defs>
</svg>
