<svg width="16" height="16" viewBox="0 0 16 16" fill="none" xmlns="http://www.w3.org/2000/svg">
<path d="M0.0353318 7.30079C0.490765 4.3997 3.87915 2 7.99173 2C12.4145 2 16 4.7759 16 7.96536C16 11.1548 12.4145 13.7596 7.99173 13.7596C7.26238 13.7605 6.53478 13.6881 5.81995 13.5433C5.6338 13.5192 5.45518 13.4546 5.29662 13.3542C5.13806 13.2537 5.00341 13.1198 4.9021 12.9617C4.80079 12.8037 4.73528 12.6255 4.71016 12.4394C4.68505 12.2534 4.70094 12.0642 4.75672 11.8849C4.76673 11.8586 4.77613 11.832 4.7847 11.8051C4.83867 11.637 4.86622 11.4615 4.8664 11.2849C4.8664 10.8317 4.68634 10.397 4.36584 10.0765C4.04534 9.75597 3.61065 9.57592 3.1574 9.57592H1.90812C1.65754 9.57592 1.40942 9.52656 1.17792 9.43067C0.946411 9.33478 0.736062 9.19423 0.558876 9.01704C0.381691 8.83985 0.241139 8.62951 0.145247 8.398C0.049355 8.1665 0 7.91837 0 7.66779C0 7.62919 0.00122538 7.591 0.00347191 7.55302C0.0110965 7.46847 0.0217165 7.38439 0.0353318 7.30079Z" fill="#B8B8B8"/>
<path d="M12.2185 7.68213C12.2466 7.97441 12.3896 8.24356 12.6162 8.43037C12.8427 8.61718 13.1342 8.70635 13.4265 8.67825C13.7187 8.65016 13.9879 8.50711 14.1747 8.28057C14.3615 8.05403 14.4507 7.76256 14.4226 7.47027C14.3945 7.17799 14.2514 6.90884 14.0249 6.72203C13.7984 6.53522 13.5069 6.44606 13.2146 6.47415C12.9223 6.50224 12.6532 6.6453 12.4664 6.87184C12.2795 7.09838 12.1904 7.38985 12.2185 7.68213Z" fill="#333338"/>
<path d="M9.64065 11.0474C9.78621 11.3025 10.0271 11.4892 10.3104 11.5666C10.5936 11.644 10.896 11.6057 11.151 11.4601C11.406 11.3145 11.5928 11.0736 11.6701 10.7904C11.7475 10.5071 11.7092 10.2048 11.5637 9.94975C11.4181 9.69474 11.1772 9.508 10.894 9.43061C10.6107 9.35322 10.3083 9.39152 10.0533 9.53709C9.7983 9.68265 9.61156 9.92355 9.53417 10.2068C9.45678 10.4901 9.49508 10.7924 9.64065 11.0474Z" fill="#333338"/>
<path d="M9.64065 5.13827C9.78621 5.39328 10.0271 5.58002 10.3104 5.65741C10.5936 5.73479 10.896 5.69649 11.151 5.55093C11.406 5.40537 11.5928 5.16446 11.6701 4.88121C11.7475 4.59797 11.7092 4.29558 11.5637 4.04057C11.4181 3.78556 11.1772 3.59882 10.894 3.52143C10.6107 3.44404 10.3083 3.48234 10.0533 3.62791C9.7983 3.77347 9.61156 4.01438 9.53417 4.29762C9.45678 4.58087 9.49508 4.88326 9.64065 5.13827Z" fill="#333338"/>
</svg>
