<svg width="24" height="24" viewBox="0 0 24 24" fill="none" xmlns="http://www.w3.org/2000/svg">
<path d="M10.1106 5.15601C10.1106 4.6549 10.3097 4.17433 10.664 3.82C11.0183 3.46566 11.4989 3.2666 12 3.2666C12.5011 3.2666 12.9817 3.46566 13.336 3.82C13.6903 4.17433 13.8894 4.6549 13.8894 5.15601C14.9743 5.66901 15.8992 6.46756 16.5648 7.46609C17.2305 8.46461 17.6119 9.62546 17.6682 10.8242V13.6583C17.7393 14.2457 17.9473 14.8081 18.2755 15.3003C18.6036 15.7926 19.0428 16.2009 19.5576 16.4924H4.44238C4.95719 16.2009 5.39635 15.7926 5.72452 15.3003C6.05269 14.8081 6.26069 14.2457 6.33179 13.6583V10.8242C6.38805 9.62546 6.76947 8.46461 7.43515 7.46609C8.10083 6.46756 9.02569 5.66901 10.1106 5.15601Z" fill="#B8B8B8" stroke="#B8B8B8" stroke-width="2" stroke-linecap="round" stroke-linejoin="round"/>
<path d="M10 14H14" stroke="#202020" stroke-width="2" stroke-linecap="round"/>
<path d="M9.53516 18.7002C9.6298 19.1883 9.86807 19.6411 10.2247 19.9977C10.6956 20.4686 11.3343 20.7332 12.0002 20.7332C12.6662 20.7332 13.3049 20.4686 13.7758 19.9977C14.1324 19.6411 14.3707 19.1883 14.4653 18.7002H9.53516Z" fill="#B8B8B8"/>
</svg>
