<svg width="16" height="16" viewBox="0 0 16 16" fill="none" xmlns="http://www.w3.org/2000/svg">
<path fill-rule="evenodd" clip-rule="evenodd" d="M7.12781 1.29694C7.50982 0.615864 8.49016 0.615864 8.87216 1.29694L10.3495 3.93087L13.3692 3.89332C14.15 3.88361 14.6402 4.7326 14.2414 5.40397L12.699 8.00034L14.2414 10.5967C14.6402 11.2681 14.15 12.1171 13.3692 12.1074L10.3495 12.0698L8.87216 14.7037C8.49016 15.3848 7.50982 15.3848 7.12781 14.7037L5.65048 12.0698L2.63076 12.1074C1.84992 12.1171 1.35976 11.2681 1.75858 10.5967L3.30096 8.00034L1.75858 5.40397C1.35976 4.7326 1.84992 3.88361 2.63076 3.89332L5.65048 3.93087L7.12781 1.29694ZM7.99986 9.81489C9.00211 9.81489 9.8146 9.0024 9.8146 8.00014C9.8146 6.99789 9.00211 6.1854 7.99986 6.1854C6.9976 6.1854 6.18511 6.99789 6.18511 8.00014C6.18511 9.0024 6.9976 9.81489 7.99986 9.81489Z" fill="#B8B8B8"/>
</svg>
