<svg width="16" height="16" viewBox="0 0 16 16" fill="none" xmlns="http://www.w3.org/2000/svg">
<path fill-rule="evenodd" clip-rule="evenodd" d="M3.2312 4.54369L4.30884 1.68652L12.8865 4.55246L3.2312 4.54369Z" stroke="#B8B8B8" stroke-width="1.2" stroke-linecap="round" stroke-linejoin="round"/>
<path fill-rule="evenodd" clip-rule="evenodd" d="M1.99992 4.18945C1.63173 4.18945 1.33325 4.48792 1.33325 4.85612V13.6465C1.33325 14.0147 1.63173 14.3132 1.99992 14.3132H13.9999C14.3681 14.3132 14.6666 14.0147 14.6666 13.6465V11.1449H11.4668C10.3689 11.1449 9.47891 10.2972 9.47891 9.25163C9.47891 8.20604 10.3689 7.3584 11.4668 7.3584H14.6666V4.85612C14.6666 4.48792 14.3681 4.18945 13.9999 4.18945H1.99992Z" fill="#B8B8B8"/>
<path d="M14.6666 11.1449H14.9999C14.9999 10.9608 14.8507 10.8115 14.6666 10.8115V11.1449ZM14.6666 7.3584V7.69173C14.8507 7.69173 14.9999 7.54249 14.9999 7.3584H14.6666ZM1.66659 4.85612C1.66659 4.67202 1.81582 4.52279 1.99992 4.52279V3.85612C1.44764 3.85612 0.999919 4.30382 0.999919 4.85612H1.66659ZM1.66659 13.6465V4.85612H0.999919V13.6465H1.66659ZM1.99992 13.9799C1.81582 13.9799 1.66659 13.8306 1.66659 13.6465H0.999919C0.999919 14.1988 1.44764 14.6465 1.99992 14.6465V13.9799ZM13.9999 13.9799H1.99992V14.6465H13.9999V13.9799ZM14.3333 13.6465C14.3333 13.8306 14.184 13.9799 13.9999 13.9799V14.6465C14.5522 14.6465 14.9999 14.1988 14.9999 13.6465H14.3333ZM14.3333 11.1449V13.6465H14.9999V11.1449H14.3333ZM11.4668 11.4782H14.6666V10.8115H11.4668V11.4782ZM9.14557 9.25163C9.14557 10.4965 10.2003 11.4782 11.4668 11.4782V10.8115C10.5375 10.8115 9.81224 10.098 9.81224 9.25163H9.14557ZM11.4668 7.02507C10.2003 7.02507 9.14557 8.0068 9.14557 9.25163H9.81224C9.81224 8.40527 10.5375 7.69173 11.4668 7.69173V7.02507ZM14.6666 7.02507H11.4668V7.69173H14.6666V7.02507ZM14.3333 4.85612V7.3584H14.9999V4.85612H14.3333ZM13.9999 4.52279C14.184 4.52279 14.3333 4.67201 14.3333 4.85612H14.9999C14.9999 4.30382 14.5522 3.85612 13.9999 3.85612V4.52279ZM1.99992 4.52279H13.9999V3.85612H1.99992V4.52279Z" fill="#B8B8B8"/>
<circle cx="11.5" cy="9.25146" r="0.632324" fill="#B8B8B8"/>
</svg>
